<svg xmlns="http://www.w3.org/2000/svg"  viewBox="0 0 48 48" width="96px" height="96px"><path d="M 24 10 C 17.561827 10 11.716224 11.430312 7.3613281 13.849609 C 3.0064319 16.268907 -1.1842379e-15 19.818423 0 24 C 0 27.176539 1.7723285 30.029989 4.4941406 32.232422 A 1.50015 1.50015 0 1 0 6.3808594 29.900391 C 4.1346715 28.082823 3 26.067461 3 24 C 3 21.277577 5.0297556 18.577359 8.8183594 16.472656 C 12.606963 14.367954 18.012173 13 24 13 C 25.766442 13 27.482635 13.116996 29.121094 13.337891 A 1.50015 1.50015 0 1 0 29.521484 10.365234 C 27.747943 10.126129 25.899558 10 24 10 z M 36.505859 12.123047 A 1.50015 1.50015 0 0 0 36.041016 15.035156 C 38.87747 16.098353 41.176847 17.522402 42.708984 19.087891 C 44.241122 20.653379 45 22.297346 45 24 C 45 26.722423 42.970244 29.422641 39.181641 31.527344 C 35.393037 33.632046 29.987827 35 24 35 C 19.798028 35 15.884015 34.333167 12.613281 33.201172 A 1.50015 1.50015 0 1 0 11.630859 36.035156 C 15.254126 37.289162 19.481972 38 24 38 C 30.438173 38 36.283776 36.569688 40.638672 34.150391 C 44.993568 31.731093 48 28.181577 48 24 C 48 21.384654 46.787926 18.966793 44.851562 16.988281 C 42.9152 15.009769 40.249295 13.407412 37.09375 12.224609 A 1.50015 1.50015 0 0 0 36.505859 12.123047 z M 21.541016 15 C 21.484375 14.995313 21.426391 15.001828 21.369141 15.017578 C 21.139141 15.080578 20.985953 15.295203 21.001953 15.533203 L 21.066406 16.425781 C 21.162406 17.663781 21.237484 18.640469 21.021484 19.355469 C 20.496484 21.091469 19.039078 21.345063 17.955078 21.039062 C 16.629078 20.664062 15.526375 19.372953 15.984375 17.626953 C 16.135375 17.051953 16.710922 16.094437 16.919922 15.773438 C 17.037922 15.591437 17.026625 15.353547 16.890625 15.185547 C 16.753625 15.017547 16.524266 14.956203 16.322266 15.033203 C 9.8082656 17.539203 6.392875 20.471953 6.171875 23.751953 C 5.860875 28.373953 12.000719 31.795453 12.261719 31.939453 C 12.433719 32.033453 12.645734 32.019391 12.802734 31.900391 C 12.959734 31.781391 13.032281 31.580672 12.988281 31.388672 C 12.735281 30.291672 12.583016 28.869125 13.291016 28.328125 C 14.244016 27.597125 16.537625 28.551406 17.265625 28.941406 C 17.459625 29.045406 17.700469 29.009516 17.855469 28.853516 C 18.974469 27.735516 19.916969 27.2965 20.667969 27.5625 C 22.185969 28.0935 22.870859 31.347641 23.005859 32.556641 C 23.031859 32.809641 23.246 33 23.5 33 L 23.511719 33 C 23.535719 32.999 23.555125 32.989328 23.578125 32.986328 C 23.596125 32.989328 23.611859 32.997047 23.630859 32.998047 C 23.640859 32.999047 23.650156 33 23.660156 33 C 23.913156 33 24.12725 32.810641 24.15625 32.556641 C 24.29025 31.348641 24.971187 28.0955 26.492188 27.5625 C 27.241187 27.2975 28.186641 27.733516 29.306641 28.853516 C 29.461641 29.009516 29.703484 29.045406 29.896484 28.941406 C 30.624484 28.549406 32.913141 27.596125 33.869141 28.328125 C 34.578141 28.869125 34.426828 30.291672 34.173828 31.388672 C 34.129828 31.579672 34.201375 31.781391 34.359375 31.900391 C 34.517375 32.019391 34.728391 32.034453 34.900391 31.939453 C 35.162391 31.795453 41.301234 28.374953 40.990234 23.751953 C 40.768234 20.471953 37.353844 17.539203 30.839844 15.033203 C 30.638844 14.955203 30.407484 15.016547 30.271484 15.185547 C 30.134484 15.353547 30.122234 15.590484 30.240234 15.771484 C 30.449234 16.092484 31.025734 17.051953 31.177734 17.626953 C 31.635734 19.371953 30.532078 20.664063 29.205078 21.039062 C 28.120078 21.347062 26.663672 21.088516 26.138672 19.353516 C 25.869672 18.464516 25.886 17.23125 26 15.53125 C 26.016 15.29425 25.862812 15.078625 25.632812 15.015625 C 25.403813 14.952625 25.160687 15.062391 25.054688 15.275391 L 24.191406 17 L 23.658203 17 L 22.808594 17 L 21.947266 15.275391 C 21.867766 15.115641 21.710937 15.014062 21.541016 15 z"/></svg>